HIERARCHY
ROOT Hips
{
    OFFSET 0.000000 0.000000 0.000000
    CHANNELS 6 Xposition Yposition Zposition Zrotation Xrotation Yrotation
        JOINT Chest
        {
            OFFSET -0.000000 31.966684 -0.000000
            CHANNELS 3 Zrotation Xrotation Yrotation
            JOINT Neck
            {
                OFFSET -0.000000 23.973995 0.000000
                CHANNELS 3 Zrotation Xrotation Yrotation
                JOINT Head
                {
                    OFFSET -0.000000 10.633333 0.000000
                    CHANNELS 3 Zrotation Xrotation Yrotation
                    End Site
                    {
                        OFFSET -0.000000 16.433334 0.000000
                    }
                }
            }
            JOINT LeftCollar
            {
                OFFSET -0.000000 23.973995 0.000000
                CHANNELS 3 Zrotation Xrotation Yrotation
                JOINT LeftShoulder
                {
                    OFFSET 19.333332 -0.000000 0.000000
                    CHANNELS 3 Zrotation Xrotation Yrotation
                    JOINT LeftElbow
                    {
                        OFFSET 20.067463 0.000000 0.000000
                        CHANNELS 3 Zrotation Xrotation Yrotation
                        JOINT LeftWrist
                        {
                            OFFSET 23.490957 0.000000 0.000000
                            CHANNELS 3 Zrotation Xrotation Yrotation
                            End Site
                            {
                                OFFSET 0.000000 -14.500000 0.000000
                            }
                        }
                    }
                }
            }
            JOINT RightCollar
            {
                OFFSET -0.000000 23.973995 0.000000
                CHANNELS 3 Zrotation Xrotation Yrotation
                JOINT RightShoulder
                {
                    OFFSET -19.333332 0.000000 0.000000
                    CHANNELS 3 Zrotation Xrotation Yrotation
                    JOINT RightElbow
                    {
                        OFFSET -20.067463 0.000000 0.000000
                        CHANNELS 3 Zrotation Xrotation Yrotation
                        JOINT RightWrist
                        {
                            OFFSET -23.490957 0.000000 0.000000
                            CHANNELS 3 Zrotation Xrotation Yrotation
                            End Site
                            {
                                OFFSET -0.000000 -14.500000 0.000000
                            }
                        }
                    }
                }
            }
        }
    JOINT LeftHip
    {
        OFFSET 11.599999 0.000000 0.000000
        CHANNELS 3 Zrotation Xrotation Yrotation
        JOINT LeftKnee
        {
            OFFSET -0.000000 -35.131119 0.000000
            CHANNELS 3 Zrotation Xrotation Yrotation
            JOINT LeftAnkle
            {
                OFFSET -0.000000 -37.839104 0.000000
                CHANNELS 3 Zrotation Xrotation Yrotation
                End Site
                {
                    OFFSET -0.000000 -4.833333 16.433334
                }
            }
        }
    }
    JOINT RightHip
    {
        OFFSET -11.599999 0.000000 0.000000
        CHANNELS 3 Zrotation Xrotation Yrotation
        JOINT RightKnee
        {
            OFFSET -0.000000 -35.131119 0.000000
            CHANNELS 3 Zrotation Xrotation Yrotation
            JOINT RightAnkle
            {
                OFFSET -0.000000 -37.839104 0.000000
                CHANNELS 3 Zrotation Xrotation Yrotation
                End Site
                {
                    OFFSET -0.000000 -4.833333 16.433334
                }
            }
        }
    }
}
MOTION
Frames:    10
Frame Time:    0.010000
-70.496620    85.858795    -25.331205    1.876050    3.857945    34.116154    -6.040888    4.752704    5.012689    5.100792    4.047343    2.474645    -7.845931    -7.987669    2.104944    -16.637476    -0.321883    2.349007    -41.798443    38.430305    -17.950090    -13.242678    8.063747    -64.631813    102.191170    -0.052691    42.302402    12.046870    0.458760    4.382504    62.650433    26.194447    8.203155    17.830023    6.232795    36.526127    -133.395920    -24.755049    40.241676    7.505217    -4.462623    0.304826    -10.842691    24.657032    -4.600841    0.438266    -8.374106    27.686844    -16.612684    -14.241285    -5.032266    3.926633    29.907782    -8.117103    13.051402    -1.976332    -5.886303    
-70.847542    86.315117    -25.161797    1.704409    4.042415    34.374100    -5.989110    4.468892    5.090950    5.102950    3.766072    2.409052    -8.000695    -7.631223    2.041927    -16.266251    -0.326853    2.225614    -42.905361    38.523972    -16.927990    -12.470309    7.489962    -64.779564    101.245415    0.086658    43.701839    11.702602    0.451924    4.479857    63.118450    26.037508    8.598347    18.209270    6.156759    35.519073    -132.351776    -25.231018    40.546421    7.672048    -4.303971    0.803050    -10.106813    23.639177    -4.737206    -0.375470    -7.353828    26.564709    -16.134544    -13.911015    -4.297194    3.797883    28.842060    -7.802616    13.495410    -1.442743    -6.557759    
-71.195183    86.733032    -24.982563    1.535866    4.246763    34.750610    -5.931065    4.195224    5.114475    5.083050    3.424409    2.313493    -8.112229    -7.210907    1.951059    -15.888611    -0.278294    2.102770    -43.831474    38.663723    -16.131310    -11.788435    7.073411    -64.839783    100.507133    0.117595    45.125912    11.354439    0.464249    4.507673    63.496864    26.011787    9.090946    18.568476    6.078487    34.519218    -131.368866    -25.511591    40.578522    7.782835    -4.151965    1.234505    -9.354298    22.559946    -4.897009    -1.145868    -6.387819    25.528280    -15.681876    -13.459797    -3.565037    3.667767    27.684620    -7.432420    13.993490    -1.124232    -7.321156    
-71.537361    87.101158    -24.800678    1.368319    4.461334    35.255455    -5.872976    3.943151    5.084289    5.042766    3.031049    2.181728    -8.168468    -6.738713    1.830891    -15.508258    -0.292746    1.975435    -44.577477    38.939857    -15.537199    -11.034505    6.577640    -64.977386    99.744331    0.108564    46.425884    11.020625    0.403654    4.476587    63.815594    26.140844    9.582795    18.790949    5.961254    33.730694    -130.310638    -25.572126    40.439030    7.842824    -4.030940    1.504716    -8.634274    21.453081    -5.000914    -1.852894    -5.489562    24.607748    -15.260732    -12.897617    -2.867951    3.548619    26.477806    -7.072609    14.480260    -1.038590    -8.104853    
-71.872620    87.410095    -24.621414    1.203196    4.673917    35.888756    -5.823116    3.727429    5.011873    4.989145    2.600250    2.011248    -8.165255    -6.235670    1.676511    -15.137554    -0.252421    1.835564    -45.084419    39.198193    -15.190668    -10.485984    6.317559    -65.030403    99.300072    0.026457    47.647095    10.700283    0.418458    4.405844    64.053169    26.257820    10.163149    19.114918    5.896675    32.772106    -129.361938    -25.650726    40.081795    7.859650    -3.956568    1.545504    -7.980935    20.358774    -4.987540    -2.475194    -4.673645    23.819496    -14.874570    -12.234905    -2.226125    3.460693    25.258730    -6.799901    14.918176    -1.196248    -8.859619    
-72.199921    87.651314    -24.446785    1.046470    4.871167    36.636131    -5.783775    3.573004    4.932660    4.928328    2.139044    1.802306    -8.107706    -5.728965    1.484370    -14.784695    -0.207328    1.674926    -45.335777    39.466091    -15.103314    -10.034475    6.106972    -65.138474    98.984329    -0.048563    48.671509    10.400633    0.395604    4.317238    64.238136    26.396732    10.728379    19.320147    5.790803    32.049583    -128.320511    -25.662786    39.698986    7.843033    -3.932799    1.338136    -7.411178    19.322721    -4.833873    -2.992615    -3.961608    23.169128    -14.525515    -11.481947    -1.648783    3.429968    24.054903    -6.680350    15.286180    -1.599013    -9.563848    
-72.519096    87.816933    -24.275768    0.905809    5.043180    37.467728    -5.745211    3.519024    4.920296    4.876719    1.635617    1.547824    -8.021876    -5.249853    1.246041    -14.457695    -0.178576    1.465037    -45.337017    39.708344    -15.261541    -9.715460    5.997827    -65.302261    98.859245    -0.070971    49.519650    10.099570    0.353324    4.209257    64.377457    26.510242    11.301311    19.513704    5.699216    31.363735    -127.342407    -25.730425    39.251270    7.804905    -3.956671    0.922876    -6.927442    18.393002    -4.562448    -3.391619    -3.384344    22.654831    -14.213981    -10.653452    -1.139445    3.480854    22.884087    -6.753794    15.568786    -2.238859    -10.214285    
-72.831970    87.900314    -24.106091    0.785782    5.187544    38.344200    -5.686458    3.611473    5.077243    4.868997    1.058923    1.233829    -7.959728    -4.827932    0.938885    -14.158813    -0.171757    1.148916    -45.096107    39.875317    -15.671508    -9.551187    6.005975    -65.526260    98.940018    0.010911    50.193962    9.760189    0.348670    4.044841    64.428856    26.595598    11.998091    19.711033    5.618732    30.676550    -126.515694    -25.886492    38.729965    7.759958    -4.026531    0.381282    -6.526415    17.613710    -4.226647    -3.669988    -2.980257    22.270771    -13.937685    -9.772995    -0.704984    3.626271    21.756039    -7.026628    15.748378    -3.092368    -10.808918    
-73.143013    87.897339    -23.936605    0.683345    5.312068    39.226879    -5.581078    3.880777    5.497599    4.944689    0.372339    0.840950    -7.979241    -4.484548    0.536487    -13.884890    -0.123201    0.656748    -44.605415    39.865654    -16.375999    -9.603374    6.203718    -65.768845    99.273468    0.228851    50.707699    9.360237    0.293335    3.763150    64.383888    26.768190    12.819082    19.736053    5.495676    30.251532    -125.800713    -26.006414    38.170967    7.724362    -4.150149    -0.193965    -6.205876    17.018074    -3.886287    -3.836211    -2.787848    22.007301    -13.691204    -8.875911    -0.364710    3.859036    20.676729    -7.469248    15.800689    -4.118508    -11.332348    
-73.458740    87.806992    -23.768339    0.587604    5.432141    40.086090    -5.404214    4.321816    6.225124    5.124755    -0.452598    0.338302    -8.115474    -4.225094    0.043919    -13.627956    -0.050525    -0.055034    -43.899532    39.682178    -17.358482    -9.805091    6.458489    -66.085243    99.758377    0.617417    51.025810    8.888964    0.236181    3.309471    64.205040    27.047617    13.848171    19.678072    5.373714    29.897552    -125.356514    -26.142181    37.492535    7.714194    -4.344364    -0.723363    -5.966843    16.623796    -3.588634    -3.909616    -2.839471    21.849854    -13.466524    -8.004626    -0.152488    4.151529    19.650707    -8.022273    15.697444    -5.263565    -11.754089    
